HIERARCHY
ROOT mixamorig:Hips
{
	OFFSET -0.000008 104.274872 1.554316
	CHANNELS 6 Xposition Yposition Zposition Xrotation Yrotation Zrotation
	JOINT mixamorig:Spine
	{
		OFFSET -0.000005 10.181595 0.131519
		CHANNELS 6 Xposition Yposition Zposition Xrotation Yrotation Zrotation
		JOINT mixamorig:Spine1
		{
			OFFSET -0.000000 9.893959 -1.470707
			CHANNELS 6 Xposition Yposition Zposition Xrotation Yrotation Zrotation
			JOINT mixamorig:Spine2
			{
				OFFSET -0.000000 9.220757 -1.370641
				CHANNELS 6 Xposition Yposition Zposition Xrotation Yrotation Zrotation
				JOINT mixamorig:Neck
				{
					OFFSET 0.000001 16.740417 -2.049036
					CHANNELS 6 Xposition Yposition Zposition Xrotation Yrotation Zrotation
					JOINT mixamorig:Head
					{
						OFFSET 0.000000 9.617874 1.685006
						CHANNELS 6 Xposition Yposition Zposition Xrotation Yrotation Zrotation
						JOINT mixamorig:HeadTop_End
						{
							OFFSET 0.000002 22.037354 7.501101
							CHANNELS 6 Xposition Yposition Zposition Xrotation Yrotation Zrotation
							End Site
							{
								OFFSET 0.000168 2310.654297 -282.823242
							}
						}
					}
				}
				JOINT mixamorig:RightShoulder
				{
					OFFSET -4.569970 11.014908 -2.160885
					CHANNELS 6 Xposition Yposition Zposition Xrotation Yrotation Zrotation
					JOINT mixamorig:RightArm
					{
						OFFSET -10.592851 -0.524811 -2.232101
						CHANNELS 6 Xposition Yposition Zposition Xrotation Yrotation Zrotation
						JOINT mixamorig:RightForeArm
						{
							OFFSET -27.841511 0.000031 -0.000004
							CHANNELS 6 Xposition Yposition Zposition Xrotation Yrotation Zrotation
							JOINT mixamorig:RightHand
							{
								OFFSET -28.328831 -0.000015 0.000015
								CHANNELS 6 Xposition Yposition Zposition Xrotation Yrotation Zrotation
								JOINT mixamorig:RightHandThumb1
								{
									OFFSET -2.464806 -1.573990 2.681852
									CHANNELS 6 Xposition Yposition Zposition Xrotation Yrotation Zrotation
									JOINT mixamorig:RightHandThumb2
									{
										OFFSET -3.215179 -1.872803 1.924282
										CHANNELS 6 Xposition Yposition Zposition Xrotation Yrotation Zrotation
										JOINT mixamorig:RightHandThumb3
										{
											OFFSET -2.654831 -1.527969 1.512609
											CHANNELS 6 Xposition Yposition Zposition Xrotation Yrotation Zrotation
											JOINT mixamorig:RightHandThumb4
											{
												OFFSET -2.018814 -1.152008 1.108052
												CHANNELS 6 Xposition Yposition Zposition Xrotation Yrotation Zrotation
												End Site
												{
													OFFSET -188.809540 -114.533607 132.431396
												}
											}
										}
									}
								}
								JOINT mixamorig:RightHandIndex1
								{
									OFFSET -9.108284 -0.517868 2.259835
									CHANNELS 6 Xposition Yposition Zposition Xrotation Yrotation Zrotation
									JOINT mixamorig:RightHandIndex2
									{
										OFFSET -3.699989 0.000000 0.001215
										CHANNELS 6 Xposition Yposition Zposition Xrotation Yrotation Zrotation
										JOINT mixamorig:RightHandIndex3
										{
											OFFSET -2.850006 0.000031 -0.000522
											CHANNELS 6 Xposition Yposition Zposition Xrotation Yrotation Zrotation
											JOINT mixamorig:RightHandIndex4
											{
												OFFSET -2.772186 -0.000015 -0.000020
												CHANNELS 6 Xposition Yposition Zposition Xrotation Yrotation Zrotation
												End Site
												{
													OFFSET -277.218445 0.000000 -0.050231
												}
											}
										}
									}
								}
								JOINT mixamorig:RightHandMiddle1
								{
									OFFSET -9.532516 -0.000031 -0.000023
									CHANNELS 6 Xposition Yposition Zposition Xrotation Yrotation Zrotation
									JOINT mixamorig:RightHandMiddle2
									{
										OFFSET -3.700005 -0.000015 0.003713
										CHANNELS 6 Xposition Yposition Zposition Xrotation Yrotation Zrotation
										JOINT mixamorig:RightHandMiddle3
										{
											OFFSET -2.949974 0.000015 -0.002054
											CHANNELS 6 Xposition Yposition Zposition Xrotation Yrotation Zrotation
											JOINT mixamorig:RightHandMiddle4
											{
												OFFSET -2.946640 0.000000 -0.000156
												CHANNELS 6 Xposition Yposition Zposition Xrotation Yrotation Zrotation
												End Site
												{
													OFFSET -294.664337 0.000000 -0.113670
												}
											}
										}
									}
								}
								JOINT mixamorig:RightHandRing1
								{
									OFFSET -9.103600 -0.043076 -1.865134
									CHANNELS 6 Xposition Yposition Zposition Xrotation Yrotation Zrotation
									JOINT mixamorig:RightHandRing2
									{
										OFFSET -3.379288 0.000000 -0.001055
										CHANNELS 6 Xposition Yposition Zposition Xrotation Yrotation Zrotation
										JOINT mixamorig:RightHandRing3
										{
											OFFSET -2.889687 -0.000015 0.000379
											CHANNELS 6 Xposition Yposition Zposition Xrotation Yrotation Zrotation
											JOINT mixamorig:RightHandRing4
											{
												OFFSET -2.638809 -0.000015 0.000941
												CHANNELS 6 Xposition Yposition Zposition Xrotation Yrotation Zrotation
												End Site
												{
													OFFSET -263.880371 0.000000 0.516020
												}
											}
										}
									}
								}
								JOINT mixamorig:RightHandPinky1
								{
									OFFSET -8.076683 -0.486710 -3.806280
									CHANNELS 6 Xposition Yposition Zposition Xrotation Yrotation Zrotation
									JOINT mixamorig:RightHandPinky2
									{
										OFFSET -3.600014 -0.000015 -0.003747
										CHANNELS 6 Xposition Yposition Zposition Xrotation Yrotation Zrotation
										JOINT mixamorig:RightHandPinky3
										{
											OFFSET -2.099983 0.000000 -0.005739
											CHANNELS 6 Xposition Yposition Zposition Xrotation Yrotation Zrotation
											JOINT mixamorig:RightHandPinky4
											{
												OFFSET -2.115768 -0.000031 -0.003680
												CHANNELS 6 Xposition Yposition Zposition Xrotation Yrotation Zrotation
												End Site
												{
													OFFSET -211.577087 0.000000 -0.350686
												}
											}
										}
									}
								}
							}
						}
					}
				}
				JOINT mixamorig:LeftShoulder
				{
					OFFSET 4.570447 11.014725 -2.160855
					CHANNELS 6 Xposition Yposition Zposition Xrotation Yrotation Zrotation
					JOINT mixamorig:LeftArm
					{
						OFFSET 10.592371 -0.524597 -2.232119
						CHANNELS 6 Xposition Yposition Zposition Xrotation Yrotation Zrotation
						JOINT mixamorig:LeftForeArm
						{
							OFFSET 27.841532 -0.000031 0.000026
							CHANNELS 6 Xposition Yposition Zposition Xrotation Yrotation Zrotation
							JOINT mixamorig:LeftHand
							{
								OFFSET 28.328846 -0.000061 0.000022
								CHANNELS 6 Xposition Yposition Zposition Xrotation Yrotation Zrotation
								JOINT mixamorig:LeftHandThumb1
								{
									OFFSET 2.466141 -1.576172 2.681732
									CHANNELS 6 Xposition Yposition Zposition Xrotation Yrotation Zrotation
									JOINT mixamorig:LeftHandThumb2
									{
										OFFSET 3.217812 -1.872070 1.916482
										CHANNELS 6 Xposition Yposition Zposition Xrotation Yrotation Zrotation
										JOINT mixamorig:LeftHandThumb3
										{
											OFFSET 2.656029 -1.528778 1.514513
											CHANNELS 6 Xposition Yposition Zposition Xrotation Yrotation Zrotation
											JOINT mixamorig:LeftHandThumb4
											{
												OFFSET 2.020889 -1.154053 1.115139
												CHANNELS 6 Xposition Yposition Zposition Xrotation Yrotation Zrotation
												End Site
												{
													OFFSET 190.885437 -115.081749 130.048782
												}
											}
										}
									}
								}
								JOINT mixamorig:LeftHandIndex1
								{
									OFFSET 9.109314 -0.518021 2.259871
									CHANNELS 6 Xposition Yposition Zposition Xrotation Yrotation Zrotation
									JOINT mixamorig:LeftHandIndex2
									{
										OFFSET 3.699989 0.000000 -0.000322
										CHANNELS 6 Xposition Yposition Zposition Xrotation Yrotation Zrotation
										JOINT mixamorig:LeftHandIndex3
										{
											OFFSET 2.850006 0.000000 0.000352
											CHANNELS 6 Xposition Yposition Zposition Xrotation Yrotation Zrotation
											JOINT mixamorig:LeftHandIndex4
											{
												OFFSET 2.774864 -0.000031 -0.000027
												CHANNELS 6 Xposition Yposition Zposition Xrotation Yrotation Zrotation
												End Site
												{
													OFFSET 277.486267 0.000000 -0.009857
												}
											}
										}
									}
								}
								JOINT mixamorig:LeftHandMiddle1
								{
									OFFSET 9.533394 0.000061 0.000044
									CHANNELS 6 Xposition Yposition Zposition Xrotation Yrotation Zrotation
									JOINT mixamorig:LeftHandMiddle2
									{
										OFFSET 3.699989 -0.000015 -0.000231
										CHANNELS 6 Xposition Yposition Zposition Xrotation Yrotation Zrotation
										JOINT mixamorig:LeftHandMiddle3
										{
											OFFSET 2.949997 -0.000015 -0.000059
											CHANNELS 6 Xposition Yposition Zposition Xrotation Yrotation Zrotation
											JOINT mixamorig:LeftHandMiddle4
											{
												OFFSET 2.952896 0.000031 0.000063
												CHANNELS 6 Xposition Yposition Zposition Xrotation Yrotation Zrotation
												End Site
												{
													OFFSET 295.289337 0.000000 0.022810
												}
											}
										}
									}
								}
								JOINT mixamorig:LeftHandRing1
								{
									OFFSET 9.104523 -0.042999 -1.865074
									CHANNELS 6 Xposition Yposition Zposition Xrotation Yrotation Zrotation
									JOINT mixamorig:LeftHandRing2
									{
										OFFSET 3.150009 -0.000031 0.000043
										CHANNELS 6 Xposition Yposition Zposition Xrotation Yrotation Zrotation
										JOINT mixamorig:LeftHandRing3
										{
											OFFSET 2.949982 -0.000015 0.000040
											CHANNELS 6 Xposition Yposition Zposition Xrotation Yrotation Zrotation
											JOINT mixamorig:LeftHandRing4
											{
												OFFSET 2.644348 0.000000 0.000057
												CHANNELS 6 Xposition Yposition Zposition Xrotation Yrotation Zrotation
												End Site
												{
													OFFSET 264.434631 0.000000 0.012105
												}
											}
										}
									}
								}
								JOINT mixamorig:LeftHandPinky1
								{
									OFFSET 8.077789 -0.486847 -3.806259
									CHANNELS 6 Xposition Yposition Zposition Xrotation Yrotation Zrotation
									JOINT mixamorig:LeftHandPinky2
									{
										OFFSET 3.599953 0.000031 0.014727
										CHANNELS 6 Xposition Yposition Zposition Xrotation Yrotation Zrotation
										JOINT mixamorig:LeftHandPinky3
										{
											OFFSET 2.100021 0.000015 0.007705
											CHANNELS 6 Xposition Yposition Zposition Xrotation Yrotation Zrotation
											JOINT mixamorig:LeftHandPinky4
											{
												OFFSET 2.125504 0.000031 0.007517
												CHANNELS 6 Xposition Yposition Zposition Xrotation Yrotation Zrotation
												End Site
												{
													OFFSET 212.550781 0.000000 0.625752
												}
											}
										}
									}
								}
							}
						}
					}
				}
			}
		}
	}
	JOINT mixamorig:RightUpLeg
	{
		OFFSET -8.207787 -6.751648 -1.599560
		CHANNELS 6 Xposition Yposition Zposition Xrotation Yrotation Zrotation
		JOINT mixamorig:RightLeg
		{
			OFFSET -0.000002 -44.370117 0.345942
			CHANNELS 6 Xposition Yposition Zposition Xrotation Yrotation Zrotation
			JOINT mixamorig:RightFoot
			{
				OFFSET 0.000003 -44.423679 -3.043532
				CHANNELS 6 Xposition Yposition Zposition Xrotation Yrotation Zrotation
				JOINT mixamorig:RightToeBase
				{
					OFFSET -0.000002 -8.728671 10.710558
					CHANNELS 6 Xposition Yposition Zposition Xrotation Yrotation Zrotation
					JOINT mixamorig:RightToe_End
					{
						OFFSET -0.000001 -0.000679 9.278119
						CHANNELS 6 Xposition Yposition Zposition Xrotation Yrotation Zrotation
						End Site
						{
							OFFSET 0.000000 -0.067690 927.812134
						}
					}
				}
			}
		}
	}
	JOINT mixamorig:LeftUpLeg
	{
		OFFSET 8.207793 -6.751686 -1.599556
		CHANNELS 6 Xposition Yposition Zposition Xrotation Yrotation Zrotation
		JOINT mixamorig:LeftLeg
		{
			OFFSET -0.000004 -44.370014 0.346954
			CHANNELS 6 Xposition Yposition Zposition Xrotation Yrotation Zrotation
			JOINT mixamorig:LeftFoot
			{
				OFFSET -0.000001 -44.423672 -3.044401
				CHANNELS 6 Xposition Yposition Zposition Xrotation Yrotation Zrotation
				JOINT mixamorig:LeftToeBase
				{
					OFFSET -0.000002 -8.728669 10.710558
					CHANNELS 6 Xposition Yposition Zposition Xrotation Yrotation Zrotation
					JOINT mixamorig:LeftToe_End
					{
						OFFSET -0.000003 -0.000679 9.278133
						CHANNELS 6 Xposition Yposition Zposition Xrotation Yrotation Zrotation
						End Site
						{
							OFFSET 0.000000 -0.068021 927.813477
						}
					}
				}
			}
		}
	}
}
MOTION
Frames: 3
Frame Time: 0.033333
0.000006 104.270477 1.554256 0.000010 0.000003 -0.000113 -0.000005 10.181587 0.131522 0.000001 -0.000003 0.000084 -0.000000 9.893967 -1.470711 0.000001 0.000000 -0.000000 -0.000000 9.220802 -1.370642 0.000000 -0.000000 -0.000000 0.000001 16.740433 -2.049030 0.000000 -0.000000 -0.000000 0.000000 9.617859 1.685014 0.000000 0.000000 0.000000 0.000002 22.037384 7.501101 0.000000 -0.000000 0.000000 -4.569968 11.014880 -2.160881 0.000008 0.000001 -0.000038 -10.592791 -0.524837 -2.231747 58.142641 68.115537 -41.192505 -27.841528 0.000018 0.000540 83.003826 103.341616 -96.436595 -28.328835 0.000021 0.000019 -0.000321 -0.000046 0.000006 -2.464608 -1.574203 2.682167 75.496581 -144.034305 135.364077 -3.215051 -1.873031 1.924433 292.742208 -24.141616 338.008112 -2.654761 -1.528217 1.512743 120.970409 -166.566498 162.486089 -2.018834 -1.152012 1.108071 -0.000002 -0.000001 0.000002 -9.108347 -0.518034 2.260163 285.069502 13.564388 10.436462 -3.700064 -0.000141 0.001530 -70.876955 19.007177 13.580401 -2.850080 -0.000117 -0.000246 -64.975958 15.674398 10.017862 -2.772170 0.000001 -0.000032 -0.000001 0.000001 0.000005 -9.532547 -0.000221 0.000283 286.317350 10.732282 8.119299 -3.700049 -0.000164 0.004019 288.322775 15.027321 10.843002 -2.950046 -0.000191 -0.001781 -66.175613 12.693537 8.287582 -2.946638 0.000006 -0.000137 -0.000000 -0.000001 -0.000004 -9.103658 -0.043215 -1.864833 288.492765 11.140261 8.012996 -3.379315 -0.000188 -0.000746 286.163616 11.258488 8.479382 -2.889748 -0.000157 0.000647 289.342031 8.475265 6.036915 -2.638803 -0.000004 0.000944 -0.000002 0.000000 -0.000002 -8.076717 -0.486836 -3.805990 289.374652 12.785072 9.011123 -3.600009 -0.000243 -0.003429 285.653592 7.529440 5.509124 -2.100007 -0.000213 -0.005451 286.255769 4.289790 3.079236 -2.115770 -0.000058 -0.003683 -0.000002 -0.000000 -0.000005 4.570446 11.014691 -2.160851 -0.000018 0.000010 -0.000021 10.592508 -0.524544 -2.232376 55.502520 -64.401300 36.664811 27.841707 -0.000069 -0.000094 271.872839 -76.701262 285.114636 28.328829 -0.000028 0.000021 0.000024 -0.000093 0.000001 2.466193 -1.576097 2.681882 -106.987154 35.460180 46.107697 3.217845 -1.871953 1.916562 109.406571 156.793017 203.342627 2.656055 -1.528748 1.514619 306.469413 4.412505 14.813196 2.020879 -1.154054 1.115138 0.000004 0.000003 0.000004 9.109286 -0.517885 2.260109 101.737409 -165.740510 168.384312 3.699951 0.000112 -0.000102 -74.207342 -21.013331 -15.976827 2.849969 0.000120 0.000591 -72.192354 -17.434235 -12.756998 2.774877 -0.000015 -0.000027 -0.000000 -0.000001 -0.000002 9.533382 0.000174 0.000261 103.518047 -170.244555 172.309472 3.699960 0.000110 -0.000018 -72.826919 -15.696166 -11.609845 2.949989 0.000083 0.000169 288.325316 -13.654146 -9.884867 2.952866 -0.000025 0.000057 0.000001 0.000000 -0.000000 9.104505 -0.042894 -1.864858 285.780442 -9.466582 -7.170021 3.149982 0.000140 0.000253 -73.775366 -7.555031 -5.674515 2.949975 0.000113 0.000278 -73.429438 -6.591548 -4.919189 2.644315 0.000046 0.000062 -0.000001 0.000000 0.000001 8.077765 -0.486748 -3.806038 288.165599 -8.378586 -6.358902 3.599953 0.000114 0.014934 -71.390811 0.541809 0.083748 2.099999 0.000108 0.007933 -73.406051 1.146049 0.546888 2.125499 0.000001 0.007513 0.000004 -0.000000 -0.000001 -8.207786 -6.751667 -1.599560 -0.077001 -0.000003 0.000080 -0.000002 -44.370110 0.345938 0.153719 -0.000000 -0.000000 0.000000 -44.423679 -3.043532 -0.076700 0.000000 -0.000002 -0.000006 -8.728667 10.710559 -0.000009 -0.000000 -0.000000 -0.000001 -0.000679 9.278123 0.000000 -0.000000 -0.000000 8.207792 -6.751710 -1.599556 -0.074518 -0.000003 0.000081 -0.000002 -44.370014 0.346960 0.148822 0.000002 0.000000 -0.000001 -44.423664 -3.044403 -0.074314 0.000000 -0.000002 -0.000004 -8.728671 10.710558 0.000007 -0.000000 -0.000000 0.000000 -0.000680 9.278137 -0.000000 0.000000 -0.000001 
0.000006 104.270477 1.554256 0.000010 0.000003 -0.000113 -0.000005 10.181587 0.131522 0.000001 -0.000003 0.000084 -0.000000 9.893967 -1.470711 0.000001 0.000000 -0.000000 -0.000000 9.220802 -1.370642 0.000000 -0.000000 -0.000000 0.000001 16.740433 -2.049030 0.000000 -0.000000 -0.000000 0.000000 9.617859 1.685014 0.000000 0.000000 0.000000 0.000002 22.037384 7.501101 0.000000 -0.000000 0.000000 -4.569968 11.014880 -2.160881 0.000008 0.000001 -0.000038 -10.592794 -0.524827 -2.231752 56.431808 66.662858 -38.872902 -27.841532 -0.000025 0.000544 83.724664 102.252344 -96.047595 -28.328835 0.000008 0.000028 -0.000318 -0.000045 0.000007 -2.464590 -1.574203 2.682199 71.365607 -140.977140 131.312764 -3.215044 -1.873014 1.924423 295.411883 -24.930971 339.120258 -2.654769 -1.528225 1.512731 125.438104 -167.201282 164.190986 -2.018834 -1.152001 1.108067 -0.000002 -0.000003 0.000002 -9.108341 -0.518023 2.260148 285.071496 11.929383 9.177697 -3.700049 -0.000132 0.001529 -72.977593 16.170411 11.987366 -2.850057 -0.000137 -0.000247 -68.413996 13.330501 9.083421 -2.772159 -0.000015 -0.000019 -0.000001 -0.000002 -0.000002 -9.532540 -0.000212 0.000296 284.800146 9.234542 7.190634 -3.700046 -0.000178 0.004008 285.035050 13.110890 10.026584 -2.950027 -0.000179 -0.001773 -71.503072 10.505083 7.569801 -2.946632 0.000000 -0.000164 0.000001 -0.000000 -0.000000 -9.103642 -0.043221 -1.864817 285.774568 9.684407 7.313108 -3.379305 -0.000187 -0.000731 283.420284 9.523826 7.534964 -2.889737 -0.000198 0.000674 284.971338 6.905286 5.331276 -2.638818 -0.000016 0.000959 0.000001 -0.000001 -0.000002 -8.076693 -0.486849 -3.806004 287.912909 10.957561 7.915861 -3.600006 -0.000252 -0.003435 282.122220 4.645655 3.522534 -2.100001 -0.000238 -0.005454 281.005129 1.806396 1.328353 -2.115769 -0.000040 -0.003682 0.000001 -0.000000 -0.000003 4.570446 11.014691 -2.160851 -0.000018 0.000010 -0.000021 10.592506 -0.524550 -2.232377 54.357309 -64.934916 36.184515 27.841711 -0.000047 -0.000102 274.067078 -77.189812 286.745220 28.328840 -0.000043 0.000016 0.000025 -0.000093 -0.000000 2.466209 -1.576104 2.681887 -108.941620 32.191781 45.841815 3.217851 -1.871946 1.916565 109.762363 158.058091 202.950479 2.656044 -1.528768 1.514641 307.992600 4.282777 14.353919 2.020895 -1.154072 1.115147 0.000001 0.000003 0.000004 9.109288 -0.517906 2.260106 102.383381 -166.405661 169.054408 3.699948 0.000111 -0.000113 -75.672615 -18.909737 -14.746821 2.849987 0.000129 0.000592 -74.779076 -15.099976 -11.567647 2.774884 -0.000026 -0.000029 -0.000001 -0.000001 0.000001 9.533389 0.000159 0.000287 103.383908 -170.384151 172.401570 3.699964 0.000122 -0.000000 -77.774770 -15.143542 -12.237394 2.949981 0.000092 0.000188 280.926828 -12.774953 -10.560024 2.952868 -0.000018 0.000054 -0.000001 -0.000000 -0.000001 9.104508 -0.042904 -1.864835 283.425994 -8.945713 -7.068057 3.149988 0.000175 0.000273 -78.974800 -8.741450 -7.208205 2.949961 0.000141 0.000265 -80.742665 -7.317329 -6.224652 2.644317 0.000035 0.000052 0.000001 -0.000000 -0.000003 8.077775 -0.486767 -3.806018 286.692491 -8.569896 -6.673997 3.599940 0.000129 0.014967 -75.120292 -2.286752 -2.068783 2.099991 0.000114 0.007943 -79.014080 -0.826675 -1.009763 2.125491 -0.000029 0.007524 -0.000000 -0.000000 -0.000001 -8.207786 -6.751667 -1.599560 -0.077001 -0.000003 0.000080 -0.000002 -44.370110 0.345938 0.153719 -0.000000 -0.000000 0.000000 -44.423679 -3.043532 -0.076700 0.000000 -0.000002 -0.000006 -8.728667 10.710559 -0.000009 -0.000000 -0.000000 -0.000001 -0.000679 9.278123 0.000000 -0.000000 -0.000000 8.207792 -6.751710 -1.599556 -0.074518 -0.000003 0.000081 -0.000002 -44.370014 0.346960 0.148822 0.000002 0.000000 -0.000001 -44.423664 -3.044403 -0.074314 0.000000 -0.000002 -0.000004 -8.728671 10.710558 0.000007 -0.000000 -0.000000 0.000000 -0.000680 9.278137 -0.000000 0.000000 -0.000001 
0.000006 104.270477 1.554256 0.000010 0.000003 -0.000113 -0.000005 10.181587 0.131522 0.000001 -0.000003 0.000084 -0.000000 9.893967 -1.470711 0.000001 0.000000 -0.000000 -0.000000 9.220802 -1.370642 0.000000 -0.000000 -0.000000 0.000001 16.740433 -2.049030 0.000000 -0.000000 -0.000000 0.000000 9.617859 1.685014 0.000000 0.000000 0.000000 0.000002 22.037384 7.501101 0.000000 -0.000000 0.000000 -4.569968 11.014880 -2.160881 0.000008 0.000001 -0.000038 -10.592796 -0.524829 -2.231755 56.988595 66.261298 -39.016264 -27.841530 -0.000002 0.000554 79.429977 102.175867 -91.637814 -28.328840 0.000022 0.000025 -0.000321 -0.000043 0.000008 -2.464576 -1.574210 2.682192 69.508875 -140.826452 129.985685 -3.215032 -1.873025 1.924425 291.643859 -26.250780 337.150869 -2.654768 -1.528217 1.512757 120.696942 -165.651799 162.280145 -2.018834 -1.151998 1.108068 -0.000003 -0.000001 0.000002 -9.108343 -0.518022 2.260171 280.736293 13.750800 11.428535 -3.700068 -0.000139 0.001554 -78.207094 18.051748 14.703768 -2.850065 -0.000118 -0.000210 -72.397089 14.386784 10.554300 -2.772167 -0.000016 -0.000033 0.000001 -0.000000 0.000002 -9.532535 -0.000217 0.000317 281.042914 10.628346 8.838149 -3.700047 -0.000165 0.004044 281.728829 14.740750 11.970863 -2.950021 -0.000167 -0.001733 -73.383935 11.640836 8.684109 -2.946632 -0.000000 -0.000133 -0.000000 -0.000001 -0.000003 -9.103651 -0.043217 -1.864801 282.473565 10.894665 8.734695 -3.379310 -0.000185 -0.000701 280.542015 10.150219 8.452466 -2.889735 -0.000195 0.000688 283.131449 7.146514 5.702020 -2.638810 0.000017 0.000934 0.000001 0.000000 0.000000 -8.076709 -0.486860 -3.805977 284.204800 11.874905 9.183781 -3.600008 -0.000245 -0.003440 279.502051 4.836271 3.852495 -2.099999 -0.000215 -0.005436 279.677231 2.057685 1.572840 -2.115766 -0.000043 -0.003674 0.000000 -0.000000 -0.000004 4.570446 11.014691 -2.160851 -0.000018 0.000010 -0.000021 10.592505 -0.524550 -2.232387 54.376727 -63.225053 35.090770 27.841715 -0.000069 -0.000104 272.062936 -77.259371 284.744904 28.328840 -0.000043 0.000016 0.000022 -0.000091 -0.000001 2.466199 -1.576068 2.681903 -109.873442 32.629484 46.631139 3.217849 -1.871956 1.916562 108.189295 157.237512 203.812039 2.656049 -1.528749 1.514617 306.276447 5.265165 14.930235 2.020902 -1.154068 1.115144 0.000002 0.000003 0.000004 9.109290 -0.517873 2.260090 101.459673 -166.489099 168.942270 3.699943 0.000103 -0.000088 -76.598393 -19.320110 -15.318912 2.849983 0.000128 0.000576 -76.030087 -15.722252 -12.319651 2.774878 -0.000015 -0.000020 0.000000 0.000000 0.000004 9.533387 0.000182 0.000276 102.308420 -170.638671 172.459818 3.699969 0.000104 0.000020 -77.760126 -14.744305 -11.910378 2.949980 0.000125 0.000169 280.631272 -13.081959 -10.871036 2.952869 -0.000018 0.000055 -0.000000 0.000001 0.000002 9.104511 -0.042881 -1.864839 282.398652 -8.616821 -6.933968 3.149988 0.000158 0.000293 -79.519487 -7.891460 -6.569811 2.949965 0.000191 0.000270 -82.052306 -7.281120 -6.338391 2.644322 0.000014 0.000061 0.000000 -0.000000 -0.000002 8.077766 -0.486749 -3.806021 285.565291 -8.604543 -6.838191 3.599963 0.000148 0.014951 -76.033912 -2.163028 -2.007173 2.100003 0.000148 0.007954 -81.183041 -1.288869 -1.442476 2.125503 -0.000018 0.007500 0.000002 0.000000 0.000000 -8.207786 -6.751667 -1.599560 -0.077001 -0.000003 0.000080 -0.000002 -44.370110 0.345938 0.153719 -0.000000 -0.000000 0.000000 -44.423679 -3.043532 -0.076700 0.000000 -0.000002 -0.000006 -8.728667 10.710559 -0.000009 -0.000000 -0.000000 -0.000001 -0.000679 9.278123 0.000000 -0.000000 -0.000000 8.207792 -6.751710 -1.599556 -0.074518 -0.000003 0.000081 -0.000002 -44.370014 0.346960 0.148822 0.000002 0.000000 -0.000001 -44.423664 -3.044403 -0.074314 0.000000 -0.000002 -0.000004 -8.728671 10.710558 0.000007 -0.000000 -0.000000 0.000000 -0.000680 9.278137 -0.000000 0.000000 -0.000001 
